Coordinates
version=1
nRows=16
nColumns=40
inDegrees=yes

Units are S.I. units (second, meters, Newtons, ...)
If the header above contains a line with 'inDegrees', this indicates whether rotational values are in degrees (yes) or radians (no).

endheader
time	pelvis_tilt	pelvis_list	pelvis_rotation	pelvis_tx	pelvis_ty	pelvis_tz	hip_flexion_r	hip_adduction_r	hip_rotation_r	knee_angle_r	knee_angle_r_beta	ankle_angle_r	subtalar_angle_r	mtp_angle_r	hip_flexion_l	hip_adduction_l	hip_rotation_l	knee_angle_l	knee_angle_l_beta	ankle_angle_l	subtalar_angle_l	mtp_angle_l	lumbar_extension	lumbar_bending	lumbar_rotation	arm_flex_r	arm_add_r	arm_rot_r	elbow_flex_r	pro_sup_r	wrist_flex_r	wrist_dev_r	arm_flex_l	arm_add_l	arm_rot_l	elbow_flex_l	pro_sup_l	wrist_flex_l	wrist_dev_l
      6.80500000	     44.16287262	      1.35725588	   -178.51773552	      0.39563845	      0.72236985	     -0.59792394	     89.31383322	    -10.92664411	      5.36362346	     50.73671057	      0.88552265	      9.78641860	      0.00000000	      0.00000000	     90.36315238	    -12.78964841	      1.41659720	     51.15170603	      0.89276569	      7.88914774	      0.00000000	      0.00000000	    -43.47818933	     -2.52057710	      4.88147514	     64.97193506	    -24.34826951	     49.62877158	     26.60461422	     63.67698566	      0.00000000	      0.00000000	     71.25822394	     -0.12785137	     13.19831685	     13.69020512	     26.13469704	      0.00000000	      0.00000000
      6.81000000	     44.32637368	      1.36891023	   -178.49352432	      0.39563846	      0.72339706	     -0.59781284	     89.27961925	    -10.97131097	      5.25771943	     50.41819129	      0.87996344	      9.73691467	      0.00000000	      0.00000000	     90.31387746	    -12.75508692	      1.34293791	     50.78367792	      0.88634239	      7.81570078	      0.00000000	      0.00000000	    -43.44105463	     -2.48941617	      4.88445467	     64.99595283	    -24.36287751	     49.61059945	     26.58504848	     63.66423366	      0.00000000	      0.00000000	     71.31887815	     -0.07408652	     13.17462210	     13.74723038	     26.10244184	      0.00000000	      0.00000000
      6.81500000	     44.67863914	      1.87837336	   -178.23362730	      0.39593439	      0.72404339	     -0.59690051	     89.29278554	    -11.25978810	      4.65787595	     50.00165097	      0.87269344	      9.55654895	      0.00000000	      0.00000000	     90.65110377	    -12.36463223	      2.11370095	     50.40614939	      0.87975327	      7.41023852	      0.00000000	      0.00000000	    -43.16984134	     -1.83316842	      4.97799143	     64.11546521	    -23.29785273	     44.98249602	     26.31239972	     59.64761643	      0.00000000	      0.00000000	     70.92530462	     -0.32730809	     13.51277231	     14.17690542	     29.26282108	      0.00000000	      0.00000000
      6.82000000	     44.55949452	      1.28687435	   -178.51259587	      0.39562685	      0.72578076	     -0.59786307	     89.03862621	    -10.92097240	      5.38200193	     49.52343545	      0.86434701	      9.13386764	      0.00000000	      0.00000000	     90.00220657	    -12.74858804	      1.13562914	     49.91231318	      0.87113420	      7.30834709	      0.00000000	      0.00000000	    -43.52237019	     -2.64898178	      4.87596591	     64.01142589	    -23.55942621	     44.84259483	     26.96475977	     58.98266995	      0.00000000	      0.00000000	     71.53181934	     -0.10467251	     13.50529436	     13.34694563	     29.76357069	      0.00000000	      0.00000000
      6.82500000	     44.68906828	      1.30717367	   -178.47707908	      0.39561807	      0.72665125	     -0.59778099	     89.03093022	    -11.00731303	      5.21181288	     49.34072082	      0.86115803	      9.09882036	      0.00000000	      0.00000000	     89.99567393	    -12.72748535	      1.05451401	     49.69790201	      0.86739202	      7.26275810	      0.00000000	      0.00000000	    -43.49871447	     -2.63081404	      4.86473143	     64.04921098	    -23.56214893	     44.92940143	     26.94525919	     59.02374853	      0.00000000	      0.00000000	     71.59159256	     -0.04893216	     13.48108065	     13.44192465	     29.73292061	      0.00000000	      0.00000000
      6.83000000	     44.78604388	      1.31238473	   -178.46435467	      0.39573780	      0.72779761	     -0.59770397	     88.86618223	    -10.99733549	      5.22276015	     48.84973822	      0.85258877	      8.76682532	      0.00000000	      0.00000000	     89.82596765	    -12.66634342	      1.07453749	     49.21792681	      0.85901487	      6.91813139	      0.00000000	      0.00000000	    -43.54634143	     -2.54924819	      4.72603249	     65.29769552	    -24.31219398	     50.15672273	     26.65889324	     61.28438753	      0.00000000	      0.00000000	     71.67906763	      0.03782557	     11.69035591	     13.48413459	     27.78747816	      0.00000000	      0.00000000
      6.83500000	     44.87146256	      1.34336252	   -178.45335931	      0.39574603	      0.72888405	     -0.59758616	     88.72266941	    -11.02248432	      5.13943484	     48.44963269	      0.84560561	      8.52584032	      0.00000000	      0.00000000	     89.70337331	    -12.64389913	      1.04243455	     48.84973112	      0.85258865	      6.72860465	      0.00000000	      0.00000000	    -43.58389252	     -2.50375637	      4.73101692	     65.51997281	    -24.44741711	     50.83808111	     26.64819035	     62.10471862	      0.00000000	      0.00000000	     71.78899549	      0.22562853	     10.49752500	     13.57971798	     25.95564141	      0.00000000	      0.00000000
      6.84000000	     45.00901457	      1.32297567	   -178.44948072	      0.39585176	      0.72985481	     -0.59754141	     88.64724358	    -11.02599549	      5.14124423	     48.05284132	      0.83868030	      8.31728526	      0.00000000	      0.00000000	     89.61534036	    -12.61614268	      0.96709543	     48.47118591	      0.84598179	      6.55655517	      0.00000000	      0.00000000	    -43.55351270	     -2.56948805	      4.78327906	     64.50799573	    -23.76353752	     46.34916609	     26.94085882	     58.67104739	      0.00000000	      0.00000000	     71.84971725	      0.23871225	     11.23154109	     13.39539731	     28.91124617	      0.00000000	      0.00000000
      6.84500000	     45.10908377	      1.33475509	   -178.47793220	      0.39595901	      0.73076170	     -0.59752052	     88.52776163	    -10.98929999	      5.10892964	     47.67355262	      0.83206046	      8.18411002	      0.00000000	      0.00000000	     89.53926606	    -12.64130961	      0.90815171	     48.16030734	      0.84055593	      6.40139424	      0.00000000	      0.00000000	    -43.55908721	     -2.53945693	      4.70239087	     65.43817251	    -24.35253465	     50.30224992	     26.75974046	     60.72240485	      0.00000000	      0.00000000	     71.82725683	      0.16795057	     10.56690782	     13.54379627	     27.54613939	      0.00000000	      0.00000000
      6.85000000	     45.14811730	      1.34386477	   -178.43802598	      0.39596038	      0.73188985	     -0.59733881	     88.33033735	    -11.05501530	      5.01800203	     47.27393983	      0.82508590	      7.98676259	      0.00000000	      0.00000000	     89.32582790	    -12.56501481	      0.85709020	     47.73883335	      0.83319982	      6.25389233	      0.00000000	      0.00000000	    -43.64193965	     -2.53978339	      4.71477533	     64.71868517	    -23.85984366	     46.98827232	     27.02242128	     58.51570458	      0.00000000	      0.00000000	     71.95119557	      0.15689826	     11.10461321	     13.31832222	     29.35312531	      0.00000000	      0.00000000
      6.85500000	     45.23594422	      1.33016320	   -178.45995280	      0.39606019	      0.73281732	     -0.59731305	     88.22238030	    -11.04226025	      4.98237114	     46.92057728	      0.81891856	      7.79441331	      0.00000000	      0.00000000	     89.21821148	    -12.57700589	      0.78127562	     47.41650080	      0.82757406	      6.10603092	      0.00000000	      0.00000000	    -43.64888079	     -2.59942605	      4.75525329	     64.06746351	    -23.30748722	     43.87547093	     27.15842457	     56.30785445	      0.00000000	      0.00000000	     71.99513387	      0.11381121	     11.69762917	     13.18141318	     31.36878705	      0.00000000	      0.00000000
      6.86000000	     45.22654186	      1.35829074	   -178.47211154	      0.39609975	      0.73389989	     -0.59718775	     87.96192687	    -11.03974230	      4.89368569	     46.50566241	      0.81167693	      7.70662217	      0.00000000	      0.00000000	     89.00640581	    -12.57028829	      0.74897881	     47.07191265	      0.82155986	      5.93374737	      0.00000000	      0.00000000	    -43.76052166	     -2.50265634	      4.68637427	     65.67176956	    -24.46318178	     50.78884252	     26.86917353	     60.24185854	      0.00000000	      0.00000000	     71.98708411	      0.12560693	     10.69134444	     13.49023711	     28.89793418	      0.00000000	      0.00000000
      6.86500000	     45.24549582	      1.37994406	   -178.48071450	      0.39610429	      0.73489269	     -0.59707422	     87.75374293	    -11.05382559	      4.79837048	     46.13743605	      0.80525017	      7.60992856	      0.00000000	      0.00000000	     88.82603920	    -12.56691890	      0.70024439	     46.74668526	      0.81588357	      5.78007904	      0.00000000	      0.00000000	    -43.83975166	     -2.47792895	      4.69480260	     65.70362610	    -24.42375612	     50.48116320	     26.78267421	     61.91487463	      0.00000000	      0.00000000	     72.09052899	      0.27425552	      9.84411438	     13.61018353	     26.27312202	      0.00000000	      0.00000000
      6.87000000	     45.30157219	      1.38561811	   -178.47961131	      0.39618732	      0.73584546	     -0.59695604	     87.58888341	    -11.06768076	      4.73417228	     45.74229221	      0.79835361	      7.34254626	      0.00000000	      0.00000000	     88.66471950	    -12.53310208	      0.65908189	     46.36243382	      0.80917712	      5.68171430	      0.00000000	      0.00000000	    -43.86566974	     -2.50290205	      4.72808040	     64.97219839	    -23.91873243	     47.23034418	     26.96774834	     59.57276046	      0.00000000	      0.00000000	     72.16467159	      0.25942454	     10.43359482	     13.39247121	     28.17629094	      0.00000000	      0.00000000
      6.87500000	     45.33785352	      1.35371413	   -178.50518258	      0.39622110	      0.73680570	     -0.59687232	     87.41552459	    -11.06801644	      4.70306393	     45.36327356	      0.79173848	      7.14949532	      0.00000000	      0.00000000	     88.47499986	    -12.52655477	      0.58032404	     46.00525740	      0.80294321	      5.55640938	      0.00000000	      0.00000000	    -43.91652080	     -2.56379155	      4.73369369	     64.49342474	    -23.51498545	     44.95916498	     27.11419967	     57.87926093	      0.00000000	      0.00000000	     72.22642939	      0.21259273	     10.90328874	     13.26677268	     29.68830597	      0.00000000	      0.00000000
      6.88000000	     45.31944013	      1.41121402	   -178.52255269	      0.39626059	      0.73782761	     -0.59667427	     87.15841277	    -11.08082225	      4.53272186	     44.97000152	      0.78487459	      7.01025544	      0.00000000	      0.00000000	     88.28090073	    -12.52072614	      0.58583659	     45.68569901	      0.79736587	      5.41423036	      0.00000000	      0.00000000	    -44.01406972	     -2.45025056	      4.74315514	     65.56806228	    -24.30284324	     49.28338659	     26.81978667	     62.75245635	      0.00000000	      0.00000000	     72.28855866	      0.46416246	      9.16536464	     13.71476322	     23.10658296	      0.00000000	      0.00000000
